<svg xmlns="http://www.w3.org/2000/svg" width="60" height="60"><g transform="matrix(.989 0 0 .989 .338 .338)"><path d="m36.898 26.007a15.512 15.512 0 1 1-31.023 0 15.512 15.512 0 1 1 31.023 0z" transform="matrix(1.706 0 0 1.706 -6.493 -14.377)" fill="#fff"/><rect width="3.067" height="9.336" x="28.467" y="49.664" fill="#858585"/><rect width="3.067" height="9.336" x="28.467" y="1" fill="#858585"/><rect width="3.067" height="9.336" x="28.467" y="-59" transform="rotate(90)" fill="#858585"/><rect width="3.067" height="9.336" x="28.467" y="-10.336" transform="rotate(90)" fill="#858585"/><rect width="3.067" height="9.336" x="39.447" y="-39.981" transform="rotate(60)" fill="#858585"/><rect width="3.067" height="9.336" x="39.447" y="8.683" transform="rotate(60)" fill="#858585"/><rect width="3.067" height="9.336" x="39.447" y="-18.019" transform="rotate(30)" fill="#858585"/><rect width="3.067" height="9.336" x="39.447" y="30.644" transform="rotate(30)" fill="#858585"/><rect width="3.067" height="9.336" x="-12.511" y="-69.975" transform="matrix(.5 -.866 -.866 -.5 0 0)" fill="#858585"/><rect width="3.067" height="9.336" x="-12.511" y="-21.312" transform="matrix(.5 -.866 -.866 -.5 0 0)" fill="#858585"/><rect width="3.067" height="9.336" x="9.451" y="-69.977" transform="matrix(.866 -.5 -.5 -.866 0 0)" fill="#858585"/><rect width="3.067" height="9.336" x="9.451" y="-21.314" transform="matrix(.866 -.5 -.5 -.866 0 0)" fill="#858585"/><path d="M30 .67c-16.197 0-29.33 13.133-29.33 29.33s13.133 29.33 29.33 29.33 29.33-13.133 29.33-29.33-13.133-29.33-29.33-29.33zm0 4.413c13.761 0 24.917 11.157 24.917 24.917 0 13.761-11.157 24.917-24.917 24.917-13.761 0-24.917-11.157-24.917-24.917 0-13.761 11.157-24.917 24.917-24.917z" fill="#ff4e00"/><path d="m30 11.541c-.516 0-1.029.026-1.535.068v17.506l16.697-9.641c-3.334-4.793-8.881-7.933-15.162-7.933z" fill="#c7c7c7"/><path d="M33.085 29.977"/><rect width="3.067" height="18.694" x="39.447" y="-29.316" transform="rotate(60)"/><text x="23.363" y="44.746" style="line-height:125%;-inkscape-font-specification:FreeSans" font-size="9.679" letter-spacing="0" word-spacing="0" fill="#858585" font-family="FreeSans"><tspan x="23.363" y="44.746" style="-inkscape-font-specification:Ubuntu" font-size="11.615" fill="#858585" font-family="Ubuntu">X3</tspan></text><path d="m30.495 30.363a5.017 5.017 0 1 1-10.033 0 5.017 5.017 0 1 1 10.033 0z" transform="matrix(.658 0 0 .658 13.238 10.024)"/></g></svg>