<svg xmlns="http://www.w3.org/2000/svg" width="60" height="60"><g transform="translate(0 -196)"><rect width="3.067" height="9.336" x="28.467" y="245.664" fill="#858585"/><rect width="3.067" height="9.336" x="28.467" y="197" fill="#858585"/><rect width="3.067" height="9.336" x="224.467" y="-59" transform="rotate(90)" fill="#858585"/><rect width="3.067" height="9.336" x="224.467" y="-10.336" transform="rotate(90)" fill="#858585"/><rect width="3.067" height="9.336" x="209.188" y="58.019" transform="rotate(60)" fill="#858585"/><rect width="3.067" height="9.336" x="209.188" y="106.683" transform="rotate(60)" fill="#858585"/><rect width="3.067" height="9.336" x="137.447" y="151.722" transform="rotate(30)" fill="#858585"/><rect width="3.067" height="9.336" x="137.447" y="200.385" transform="rotate(30)" fill="#858585"/><rect width="3.067" height="9.336" x="-182.255" y="-167.981" transform="matrix(.5 -.866 -.866 -.5 0 0)" fill="#858585"/><rect width="3.067" height="9.336" x="-182.255" y="-119.317" transform="matrix(.5 -.866 -.866 -.5 0 0)" fill="#858585"/><rect width="3.067" height="9.336" x="-88.553" y="-239.722" transform="matrix(.866 -.5 -.5 -.866 0 0)" fill="#858585"/><rect width="3.067" height="9.336" x="-88.553" y="-191.058" transform="matrix(.866 -.5 -.5 -.866 0 0)" fill="#858585"/><path d="m30 197c-16.015 0-29 12.985-29 29s12.985 29 29 29 29-12.985 29-29-12.985-29-29-29zm0 4.363c13.606 0 24.637 11.031 24.637 24.637s-11.031 24.637-24.637 24.637-24.637-11.031-24.637-24.637 11.031-24.637 24.637-24.637z" fill="#ff4e00"/><path d="m30 207.541c-.516 0-1.029.026-1.535.068v17.506l16.697-9.641c-3.334-4.793-8.881-7.933-15.162-7.933z" fill="#c7c7c7"/><path d="m128.422 95.19a53.509 53.509 0 1 1-107.019 0 53.509 53.509 0 1 1 107.019 0z" transform="matrix(.058 0 0 .058 25.637 220.456)"/><rect width="3.067" height="18.694" x="209.188" y="68.684" transform="rotate(60)"/><text x="23.363" y="240.746" style="line-height:125%;-inkscape-font-specification:FreeSans" font-size="9.679" letter-spacing="0" word-spacing="0" fill="#858585" font-family="FreeSans"><tspan x="23.363" y="240.746" style="-inkscape-font-specification:Ubuntu" font-size="11.615" fill="#858585" font-family="Ubuntu">X3</tspan></text></g></svg>