<?xml version="1.0" encoding="UTF-8" standalone="no"?>
<!-- Created with Inkscape (http://www.inkscape.org/) -->

<svg
   xmlns:dc="http://purl.org/dc/elements/1.1/"
   xmlns:cc="http://creativecommons.org/ns#"
   xmlns:rdf="http://www.w3.org/1999/02/22-rdf-syntax-ns#"
   xmlns:svg="http://www.w3.org/2000/svg"
   xmlns="http://www.w3.org/2000/svg"
   version="1.1"
   width="60"
   height="60"
   id="svg2">
  <defs
     id="defs4" />
  <metadata
     id="metadata7">
    <rdf:RDF>
      <cc:Work
         rdf:about="">
        <dc:format>image/svg+xml</dc:format>
        <dc:type
           rdf:resource="http://purl.org/dc/dcmitype/StillImage" />
        <dc:title></dc:title>
      </cc:Work>
    </rdf:RDF>
  </metadata>
  <g
     transform="translate(0,-196)"
     id="layer6"
     style="display:inline">
    <g
       id="g4261">
      <rect
         width="3.0666995"
         height="9.3363962"
         x="28.46665"
         y="245.6636"
         id="rect3837-5"
         style="fill:#858585;fill-opacity:1;stroke:none;display:inline" />
      <rect
         width="3.0666995"
         height="9.3363962"
         x="28.46665"
         y="197"
         id="rect3837-5-1"
         style="fill:#858585;fill-opacity:1;stroke:none;display:inline" />
      <rect
         width="3.0666995"
         height="9.3363962"
         x="224.46666"
         y="-59"
         transform="matrix(0,1,-1,0,0,0)"
         id="rect3837-5-1-8"
         style="fill:#858585;fill-opacity:1;stroke:none;display:inline" />
      <rect
         width="3.0666995"
         height="9.3363962"
         x="224.46666"
         y="-10.336395"
         transform="matrix(0,1,-1,0,0,0)"
         id="rect3837-5-1-9"
         style="fill:#858585;fill-opacity:1;stroke:none;display:inline" />
      <rect
         width="3.0666993"
         height="9.3363953"
         x="209.1884"
         y="58.019241"
         transform="matrix(0.49999999,0.86602541,-0.86602541,0.49999999,0,0)"
         id="rect3837-5-1-8-0"
         style="fill:#858585;fill-opacity:1;stroke:none;display:inline" />
      <rect
         width="3.0666993"
         height="9.3363953"
         x="209.1884"
         y="106.68285"
         transform="matrix(0.49999999,0.86602541,-0.86602541,0.49999999,0,0)"
         id="rect3837-5-1-9-0"
         style="fill:#858585;fill-opacity:1;stroke:none;display:inline" />
      <rect
         width="3.0666993"
         height="9.3363953"
         x="137.44742"
         y="151.72176"
         transform="matrix(0.86602541,0.49999999,-0.49999999,0.86602541,0,0)"
         id="rect3837-5-1-8-3"
         style="fill:#858585;fill-opacity:1;stroke:none;display:inline" />
      <rect
         width="3.0666993"
         height="9.3363953"
         x="137.44742"
         y="200.38535"
         transform="matrix(0.86602541,0.49999999,-0.49999999,0.86602541,0,0)"
         id="rect3837-5-1-9-5"
         style="fill:#858585;fill-opacity:1;stroke:none;display:inline" />
      <rect
         width="3.0666993"
         height="9.3363953"
         x="-182.2551"
         y="-167.98076"
         transform="matrix(0.49999999,-0.86602541,-0.86602541,-0.49999999,0,0)"
         id="rect3837-5-1-8-0-5"
         style="fill:#858585;fill-opacity:1;stroke:none;display:inline" />
      <rect
         width="3.0666993"
         height="9.3363953"
         x="-182.2551"
         y="-119.31716"
         transform="matrix(0.49999999,-0.86602541,-0.86602541,-0.49999999,0,0)"
         id="rect3837-5-1-9-0-3"
         style="fill:#858585;fill-opacity:1;stroke:none;display:inline" />
      <rect
         width="3.0666993"
         height="9.3363953"
         x="-88.552589"
         y="-239.72174"
         transform="matrix(0.86602541,-0.49999999,-0.49999999,-0.86602541,0,0)"
         id="rect3837-5-1-8-3-7"
         style="fill:#858585;fill-opacity:1;stroke:none;display:inline" />
      <rect
         width="3.0666993"
         height="9.3363953"
         x="-88.552589"
         y="-191.05815"
         transform="matrix(0.86602541,-0.49999999,-0.49999999,-0.86602541,0,0)"
         id="rect3837-5-1-9-5-4"
         style="fill:#858585;fill-opacity:1;stroke:none;display:inline" />
      <path
         d="m 30,197 c -16.014793,0 -29.00000035,12.98521 -29.00000035,29 0,16.0148 12.98520735,29 29.00000035,29 16.014793,0 29,-12.9852 29,-29 0,-16.01479 -12.985207,-29 -29,-29 z m 0,4.36324 c 13.605988,0 24.636767,11.03078 24.636767,24.63676 0,13.60599 -11.030779,24.63677 -24.636767,24.63677 C 16.394013,250.63677 5.3632331,239.60599 5.3632331,226 5.3632331,212.39402 16.394013,201.36324 30,201.36324 z"
         id="path2985"
         style="fill:#ff4e00;fill-opacity:1;stroke:none;display:inline" />
      <path
         d="m 30,207.54133 c -0.51629,0 -1.029494,0.0265 -1.535072,0.0681 l 0,17.50587 16.696741,-9.64146 C 41.828044,210.68093 36.280663,207.54133 30,207.54133 z"
         id="path4108"
         style="fill:#c7c7c7;fill-opacity:1;stroke:none;display:inline" />
      <path
         d="m 128.42244,95.190315 a 53.50935,53.50935 0 1 1 -107.018696,0 53.50935,53.50935 0 1 1 107.018696,0 z"
         transform="matrix(0.05823853,0,0,0.05823853,25.637171,220.45626)"
         id="path3777"
         style="fill:#000000;fill-opacity:1;stroke:none;display:inline" />
      <rect
         width="3.0667067"
         height="18.694197"
         x="209.1884"
         y="68.683853"
         transform="matrix(0.49999999,0.86602541,-0.86602541,0.49999999,0,0)"
         id="rect3837-5-1-8-0-1"
         style="fill:#000000;fill-opacity:1;stroke:none;display:inline" />
      <text
         x="23.362772"
         y="240.74599"
         id="text3833"
         xml:space="preserve"
         style="font-size:9.67926979px;font-style:normal;font-variant:normal;font-weight:normal;font-stretch:normal;line-height:125%;letter-spacing:0px;word-spacing:0px;fill:#858585;fill-opacity:1;stroke:none;display:inline;font-family:FreeSans;-inkscape-font-specification:FreeSans"><tspan
           x="23.362772"
           y="240.74599"
           id="tspan3835"
           style="font-size:11.61512375px;font-style:normal;font-variant:normal;font-weight:normal;font-stretch:normal;fill:#858585;fill-opacity:1;font-family:Ubuntu;-inkscape-font-specification:Ubuntu">X3</tspan></text>
    </g>
  </g>
</svg>
