<?xml version="1.0" encoding="UTF-8" standalone="no"?>
<!-- Created with Inkscape (http://www.inkscape.org/) -->

<svg
   xmlns:dc="http://purl.org/dc/elements/1.1/"
   xmlns:cc="http://creativecommons.org/ns#"
   xmlns:rdf="http://www.w3.org/1999/02/22-rdf-syntax-ns#"
   xmlns:svg="http://www.w3.org/2000/svg"
   xmlns="http://www.w3.org/2000/svg"
   version="1.1"
   width="60"
   height="60"
   id="svg2">
  <metadata
     id="metadata46">
    <rdf:RDF>
      <cc:Work
         rdf:about="">
        <dc:format>image/svg+xml</dc:format>
        <dc:type
           rdf:resource="http://purl.org/dc/dcmitype/StillImage" />
        <dc:title></dc:title>
      </cc:Work>
    </rdf:RDF>
  </metadata>
  <defs
     id="defs44" />
  <g
     transform="matrix(0.98874761,0,0,0.98874761,0.3375717,0.3375717)"
     id="g3813">
    <path
       d="m 36.89769,26.006601 a 15.511551,15.511551 0 1 1 -31.023102,0 15.511551,15.511551 0 1 1 31.023102,0 z"
       transform="matrix(1.706383,0,0,1.706383,-6.4929437,-14.377222)"
       id="path3043"
       style="fill:#ffffff;fill-opacity:1;stroke:none" />
    <rect
       width="3.0669999"
       height="9.3360004"
       x="28.466999"
       y="49.664001"
       id="rect6"
       style="fill:#858585" />
    <rect
       width="3.0669999"
       height="9.3360004"
       x="28.466999"
       y="1"
       id="rect8"
       style="fill:#858585" />
    <rect
       width="3.0669999"
       height="9.3360004"
       x="28.466995"
       y="-59"
       transform="matrix(0,1,-1,0,0,0)"
       id="rect10"
       style="fill:#858585" />
    <rect
       width="3.0669999"
       height="9.3360004"
       x="28.466995"
       y="-10.336"
       transform="matrix(0,1,-1,0,0,0)"
       id="rect12"
       style="fill:#858585" />
    <rect
       width="3.0669999"
       height="9.3360004"
       x="39.447025"
       y="-39.980999"
       transform="matrix(0.5,0.8660254,-0.8660254,0.5,0,0)"
       id="rect14"
       style="fill:#858585" />
    <rect
       width="3.0669999"
       height="9.3360004"
       x="39.447025"
       y="8.6829977"
       transform="matrix(0.5,0.8660254,-0.8660254,0.5,0,0)"
       id="rect16"
       style="fill:#858585" />
    <rect
       width="3.0669999"
       height="9.3360004"
       x="39.447006"
       y="-18.01898"
       transform="matrix(0.8660254,0.5,-0.5,0.8660254,0,0)"
       id="rect18"
       style="fill:#858585" />
    <rect
       width="3.0669999"
       height="9.3360004"
       x="39.447006"
       y="30.644014"
       transform="matrix(0.8660254,0.5,-0.5,0.8660254,0,0)"
       id="rect20"
       style="fill:#858585" />
    <rect
       width="3.0669324"
       height="9.3357954"
       x="-12.511261"
       y="-69.975151"
       transform="matrix(0.500011,-0.86601905,-0.86601905,-0.500011,0,0)"
       id="rect22"
       style="fill:#858585" />
    <rect
       width="3.0669324"
       height="9.3357954"
       x="-12.511261"
       y="-21.31222"
       transform="matrix(0.500011,-0.86601905,-0.86601905,-0.500011,0,0)"
       id="rect24"
       style="fill:#858585" />
    <rect
       width="3.0669324"
       height="9.3357954"
       x="9.4511032"
       y="-69.97699"
       transform="matrix(0.86601905,-0.500011,-0.500011,-0.86601905,0,0)"
       id="rect26"
       style="fill:#858585" />
    <rect
       width="3.0669324"
       height="9.3357954"
       x="9.4511032"
       y="-21.31406"
       transform="matrix(0.86601905,-0.500011,-0.500011,-0.86601905,0,0)"
       id="rect28"
       style="fill:#858585" />
    <path
       d="M 30,0.669967 C 13.802742,0.669967 0.669967,13.802742 0.669967,30 0.669967,46.197258 13.802742,59.330033 30,59.330033 46.197258,59.330033 59.330033,46.197258 59.330033,30 59.330033,13.802742 46.197258,0.669967 30,0.669967 z m 0,4.4126529 C 43.760842,5.0826199 54.91738,16.239158 54.91738,30 54.91738,43.760842 43.760842,54.91738 30,54.91738 16.239158,54.91738 5.0826199,43.760842 5.0826199,30 5.0826199,16.239158 16.239158,5.0826199 30,5.0826199 z"
       id="path30"
       style="fill:#ff4e00" />
    <path
       d="m 30,11.541 c -0.516,0 -1.029,0.026 -1.535,0.068 V 29.115 L 45.162,19.474 C 41.828,14.681 36.281,11.541 30,11.541 z"
       id="path32"
       style="fill:#c7c7c7" />
    <path
       d="M 33.085476,29.97702"
       id="path34" />
    <rect
       width="3.0669999"
       height="18.694"
       x="39.447025"
       y="-29.316002"
       transform="matrix(0.5,0.8660254,-0.8660254,0.5,0,0)"
       id="rect36" />
    <text
       x="23.363001"
       y="44.746002"
       id="text38"
       style="font-size:9.6789999px;line-height:125%;letter-spacing:0;word-spacing:0;fill:#858585;font-family:FreeSans;-inkscape-font-specification:FreeSans">
      <tspan
         x="23.363001"
         y="44.746002"
         id="tspan40"
         style="font-size:11.61499977px;fill:#858585;font-family:Ubuntu;-inkscape-font-specification:Ubuntu">X3</tspan>
    </text>
    <path
       d="m 30.495049,30.363037 a 5.0165014,5.0165014 0 1 1 -10.033002,0 5.0165014,5.0165014 0 1 1 10.033002,0 z"
       transform="matrix(0.65789472,0,0,0.65789472,13.237798,10.024318)"
       id="path3041"
       style="fill:#000000;fill-opacity:1;stroke:none" />
  </g>
</svg>
